:SAMPLES-PER-SECOND 30
:FRAME-RANGE 1-3535
:FULLY-SPECIFIED
:DEGREES
553
root  -6.90512 38.5733 -88.6813 -175.691 -52.1278 175.138
RightUpLeg  -21.3796 2.61277 -9.68256
RightLeg  66.3029 -1.35635 -4.04347
RightFoot  -3.1981 -0.63862 8.64851
RightToes  5.38503e-012 1.26228e-014 -6.01869e-014
Spine  1.29824 1.31014 -2.07976
Spine1  3.07796 0.705041 -0.973315
HEad  15.5012 42.6413 -2.36174
LeftShoulder1  1.33431 -1.50934 -21.6032
LeftArm  1.51424 0.589031 -56.6283
LeftForeArm  35.6266 -4.07466 -12.5356
LeftHand  -0.0895625 4.13037 6.72949
RightShoulder  1.44565 0.957094 27.9134
RightArm  -30.2659 6.23884 45.0017
RightForeArm  65.4407 -4.9024 0.108404
RightHand  0.367253 -7.53078 -20.4801
LeftUpLeg  -11.0847 -1.55553 -11.8289
LeftLeg  24.644 12.1589 6.3708
LeftFoot  -12.8115 0.139479 4.86266
LeftToes  8.9788e-011 3.29689e-010 2.1201e-011
554
root  -8.11029 38.618 -89.4484 -176.468 -54.5351 176.01
RightUpLeg  -24.1416 2.11245 -8.8029
RightLeg  59.6551 -3.14115 -6.26354
RightFoot  -5.7761 -0.457911 8.59491
RightToes  5.38503e-012 1.26228e-014 -6.01869e-014
Spine  1.48383 0.499529 -2.55116
Spine1  2.66861 -0.183049 -0.0927979
HEad  13.3503 42.8823 -3.6613
LeftShoulder1  1.41162 -1.80973 -21.4814
LeftArm  6.76275 -0.971238 -57.3965
LeftForeArm  31.9555 -8.66808 -11.7209
LeftHand  -0.107452 3.86683 7.0386
RightShoulder  1.20981 0.188743 28.6024
RightArm  -32.0372 0.997758 42.1864
RightForeArm  64.1079 -4.80615 -0.734934
RightHand  0.388743 -7.7027 -20.0759
LeftUpLeg  -7.95915 -1.7501 -11.3625
LeftLeg  23.7533 10.4535 5.49075
LeftFoot  -14.6519 0.237896 5.1799
LeftToes  8.9788e-011 3.29689e-010 2.1201e-011
555
root  -9.31437 38.676 -90.1859 -177.277 -56.7563 177.237
RightUpLeg  -25.8878 2.4063 -8.06475
RightLeg  49.7119 -6.03713 -7.91219
RightFoot  -6.40244 -0.424564 8.81531
RightToes  5.38503e-012 1.26228e-014 -6.01869e-014
Spine  1.09805 -0.238241 -2.44006
Spine1  2.90314 -0.882537 0.732227
HEad  10.9255 43.0443 -5.04838
LeftShoulder1  1.47956 -2.03203 -21.6142
LeftArm  12.6731 -3.08249 -57.852
LeftForeArm  27.3509 -12.621 -10.2447
LeftHand  -0.0893955 4.2663 7.53675
RightShoulder  1.0059 -0.441567 29.0691
RightArm  -33.0154 -3.85848 39.7913
RightForeArm  62.6699 -4.77345 -1.22122
RightHand  0.394466 -7.75846 -19.9009
LeftUpLeg  -4.88622 -1.60266 -10.6091
LeftLeg  22.208 8.50586 4.55302
LeftFoot  -16.1261 0.328179 5.52963
LeftToes  8.9788e-011 3.29689e-010 2.1201e-011
556
root  -10.5327 38.7253 -90.8913 -177.615 -58.5024 178.133
RightUpLeg  -26.2805 4.03052 -8.14108
RightLeg  36.5145 -9.79404 -7.94361
RightFoot  -5.45473 -0.550377 9.95629
RightToes  5.38503e-012 1.26228e-014 -6.01869e-014
Spine  0.587492 -0.85957 -1.91308
Spine1  3.09505 -1.33533 1.07511
HEad  9.16271 43.3381 -6.17321
LeftShoulder1  1.47325 -2.05245 -21.3763
LeftArm  18.0183 -4.72114 -58.2956
LeftForeArm  23.2879 -15.9371 -8.37844
LeftHand  -0.132908 3.59723 7.74195
RightShoulder  0.863314 -0.861681 29.2336
RightArm  -34.1188 -8.79263 38.2714
RightForeArm  62.7651 -4.65698 -1.87583
RightHand  0.399513 -7.8068 -19.7592
LeftUpLeg  -1.83775 -1.14006 -9.97048
LeftLeg  20.1225 6.54446 3.64462
LeftFoot  -17.1813 0.383541 5.48952
LeftToes  8.9788e-011 3.29689e-010 2.1201e-011
557
root  -11.7991 38.6843 -91.6019 -177.13 -60.0121 178.403
RightUpLeg  -25.7737 6.45743 -9.40627
RightLeg  21.5087 -11.404 -5.11021
RightFoot  -4.25891 -0.636353 9.78997
RightToes  5.38503e-012 1.26228e-014 -6.01869e-014
Spine  -0.600664 -1.38698 -1.259
Spine1  3.72756 -1.68313 1.06479
HEad  8.15115 43.939 -7.267
LeftShoulder1  1.42527 -1.92826 -21.0935
LeftArm  21.3015 -5.83788 -58.6465
LeftForeArm  19.9392 -18.2551 -6.80784
LeftHand  -0.129215 3.62807 7.61898
RightShoulder  0.725741 -1.24491 29.0669
RightArm  -35.0176 -13.456 37.4128
RightForeArm  63.6822 -4.52861 -2.42904
RightHand  0.417718 -7.9249 -19.6805
LeftUpLeg  0.834738 -0.719906 -9.60983
LeftLeg  18.1908 4.77465 2.93858
LeftFoot  -18.14 0.452813 5.78142
LeftToes  8.9788e-011 3.29689e-010 2.1201e-011
